<svg width="143" height="66" viewBox="0 0 143 66" fill="none" xmlns="http://www.w3.org/2000/svg">
<path fill-rule="evenodd" clip-rule="evenodd" d="M35.2052 65.9503C14.3562 65.9503 0.463867 54.962 0.463867 33.2358C0.463867 13.2401 12.8863 6.10352e-05 32.8035 6.10352e-05H44.9154V12.3019H38.0416C23.2176 12.3019 17.8966 18.9323 17.8966 33.0064C17.8966 45.6627 21.3749 53.857 36.5302 53.857H49.7808V42.1807L66.7374 56.6092V65.9503H35.2052ZM93.2592 41.3466V65.9503H76.2819V47.6018L49.7808 24.833V0.020916H66.6752V18.7864L93.2592 41.3466ZM93.2592 12.281V23.4986L76.2819 9.82066V6.10352e-05H110.216C132.179 6.10352e-05 141.369 11.6043 142.464 28.7024V35.8935C141.856 45.3387 138.684 54.6412 130.485 60.1955C121.772 66.175 111.443 66.073 101.512 65.975C100.258 65.9626 99.0101 65.9503 97.7726 65.9503V53.857H103.073C119.139 53.857 125.081 50.6043 125.019 34.1741C125.019 21.1425 121.417 12.281 106.717 12.281H93.2592Z" fill="#0284C7"/>
</svg>
