<svg width="91" height="104" viewBox="0 0 91 104" fill="none" xmlns="http://www.w3.org/2000/svg">
<g filter="url(#filter0_d_1279_6869)">
<path d="M31.4268 34.4526C31.6753 35.5959 32.0564 36.3361 32.5011 36.7973C33.5588 44.1601 40.1676 50.4347 45.4757 50.1724C52.2282 49.841 57.0142 42.5638 58.0886 36.7973C58.5332 36.3388 58.9613 35.3584 59.2181 34.2068C59.5053 32.8839 59.8146 30.8899 59.0193 29.8349C58.9723 29.7797 58.6685 29.5008 58.6161 29.4538C59.3755 26.7142 61.0436 21.8259 56.89 17.432C54.6392 15.0514 51.5129 13.8555 48.6876 12.911C40.3472 10.1244 34.4591 14.0323 31.7416 20.5306C31.5455 20.9919 30.2779 23.911 31.8134 29.4538C31.6643 29.5532 31.5289 29.6803 31.4157 29.8349C30.6176 30.8872 31.1368 33.1297 31.4268 34.4526Z" fill="white"/>
<path d="M74.5626 74.9451C74.3306 69.8774 74.0434 61.8462 69.6163 55.2761C69.6163 55.2761 68.3542 53.5555 65.3605 52.4121C65.3605 52.4121 58.8593 50.432 55.8656 48.2916L54.4986 49.2279L54.6505 58.1151L46.4426 80.0267C46.2631 80.5073 45.8046 80.8249 45.2937 80.8249C44.7828 80.8249 44.3243 80.5073 44.1448 80.0267L35.9397 58.1151C35.9397 58.1151 36.0916 49.2555 36.0888 49.2279C36.1082 49.3024 34.719 48.2916 34.719 48.2916C31.7308 50.432 25.2269 52.4121 25.2269 52.4121C22.2332 53.5555 20.9711 55.2761 20.9711 55.2761C16.5468 61.8462 16.254 69.8774 16.022 74.9451C15.8619 78.447 16.5965 79.7533 17.5189 80.1262C28.9691 84.7217 61.61 84.7217 73.0629 80.1262C73.9909 79.7561 74.72 78.447 74.5626 74.9451Z" fill="white"/>
<path d="M45.586 53.0032L45.2159 53.0115C44.0229 53.0115 42.8187 52.7795 41.6367 52.3707L44.89 57.3501L41.9709 60.1671L44.9757 78.4139C45.0005 78.5713 45.1358 78.6846 45.296 78.6846C45.4534 78.6846 45.5888 78.5713 45.6164 78.4139L48.6211 60.1671L45.6992 57.3501L48.9056 52.4453C47.8589 52.7518 46.7515 52.9562 45.586 53.0032Z" fill="white"/>
</g>
<defs>
<filter id="filter0_d_1279_6869" x="0" y="0" width="90.584" height="103.573" filterUnits="userSpaceOnUse" color-interpolation-filters="sRGB">
<feFlood flood-opacity="0" result="BackgroundImageFix"/>
<feColorMatrix in="SourceAlpha" type="matrix" values="0 0 0 0 0 0 0 0 0 0 0 0 0 0 0 0 0 0 127 0" result="hardAlpha"/>
<feOffset dy="4"/>
<feGaussianBlur stdDeviation="8"/>
<feComposite in2="hardAlpha" operator="out"/>
<feColorMatrix type="matrix" values="0 0 0 0 0 0 0 0 0 0 0 0 0 0 0 0 0 0 0.15 0"/>
<feBlend mode="normal" in2="BackgroundImageFix" result="effect1_dropShadow_1279_6869"/>
<feBlend mode="normal" in="SourceGraphic" in2="effect1_dropShadow_1279_6869" result="shape"/>
</filter>
</defs>
</svg>
