<svg width="74" height="77" viewBox="0 0 74 77" fill="none" xmlns="http://www.w3.org/2000/svg">
<g filter="url(#filter0_d_1265_6883)">
<path d="M16.1094 34.8672C16.1094 30.8568 16.9818 27.1849 18.7266 23.8516C20.4714 20.4922 22.9323 17.8229 26.1094 15.8438C29.2865 13.8646 32.8411 12.875 36.7734 12.875C39.4036 12.875 41.8255 13.2786 44.0391 14.0859C46.2526 14.8672 48.1406 15.9609 49.7031 17.3672C51.2917 18.7734 52.6328 20.4401 53.7266 22.3672C54.8464 24.2682 55.6667 26.3385 56.1875 28.5781C56.7344 30.8177 57.0078 33.1615 57.0078 35.6094C57.0078 36.7812 56.9557 37.6797 56.8516 38.3047H25.7969C26.3177 41.6901 27.6719 44.3333 29.8594 46.2344C32.0729 48.1094 34.7682 49.0469 37.9453 49.0469C40.237 49.0469 42.2812 48.6432 44.0781 47.8359C45.875 47.0026 47.6458 45.7266 49.3906 44.0078L55.0938 49.0469C50.7188 54.3333 44.9505 56.9766 37.7891 56.9766C33.7266 56.9766 30.0547 56.0651 26.7734 54.2422C23.4922 52.4193 20.888 49.8151 18.9609 46.4297C17.0599 43.0443 16.1094 39.1901 16.1094 34.8672ZM25.7188 31.9375H47.3984C47.0599 28.6562 45.9531 25.987 44.0781 23.9297C42.2292 21.8464 39.7682 20.8047 36.6953 20.8047C33.7786 20.8047 31.3307 21.8333 29.3516 23.8906C27.3984 25.9219 26.1875 28.6042 25.7188 31.9375Z" fill="white"/>
</g>
<defs>
<filter id="filter0_d_1265_6883" x="0.109375" y="0.875" width="72.8984" height="76.1016" filterUnits="userSpaceOnUse" color-interpolation-filters="sRGB">
<feFlood flood-opacity="0" result="BackgroundImageFix"/>
<feColorMatrix in="SourceAlpha" type="matrix" values="0 0 0 0 0 0 0 0 0 0 0 0 0 0 0 0 0 0 127 0" result="hardAlpha"/>
<feOffset dy="4"/>
<feGaussianBlur stdDeviation="8"/>
<feComposite in2="hardAlpha" operator="out"/>
<feColorMatrix type="matrix" values="0 0 0 0 0 0 0 0 0 0 0 0 0 0 0 0 0 0 0.15 0"/>
<feBlend mode="normal" in2="BackgroundImageFix" result="effect1_dropShadow_1265_6883"/>
<feBlend mode="normal" in="SourceGraphic" in2="effect1_dropShadow_1265_6883" result="shape"/>
</filter>
</defs>
</svg>
